<svg width="85" height="85" viewBox="0 0 85 85" fill="none" xmlns="http://www.w3.org/2000/svg">
<g clip-path="url(#clip0_1517_3448)">
<path d="M37.4243 49.0635C30.341 49.0635 24.6035 43.3024 24.6035 36.2427C24.6035 29.183 30.3646 23.4219 37.4243 23.4219C44.4841 23.4219 50.2452 29.183 50.2452 36.2427C50.2452 43.3024 44.4841 49.0635 37.4243 49.0635ZM37.4243 25.7358C31.6396 25.7358 26.941 30.4344 26.941 36.2191C26.941 42.0038 31.6396 46.7024 37.4243 46.7024C43.2091 46.7024 47.9077 42.0038 47.9077 36.2191C47.9077 30.4344 43.2091 25.7358 37.4243 25.7358Z" fill="white"/>
<path d="M18.4391 74.9184H16.1016V73.7378C16.1016 61.9795 25.6641 52.417 37.4224 52.417C41.8377 52.417 46.0641 53.7392 49.653 56.2656L50.621 56.9267L49.2752 58.8392L48.3071 58.1781C45.1196 55.935 41.3418 54.7545 37.4224 54.7545C26.9627 54.7545 18.4391 63.2781 18.4391 73.7378V74.9184Z" fill="white"/>
<path d="M61.1766 78.7903C55.8405 78.7903 51.4961 74.4459 51.4961 69.1098C51.4961 63.7736 55.8405 59.4292 61.1766 59.4292C66.5128 59.4292 70.8572 63.7736 70.8572 69.1098C70.8572 74.4459 66.5128 78.7903 61.1766 78.7903ZM61.1766 61.7903C57.1391 61.7903 53.8336 65.0723 53.8336 69.1334C53.8336 73.1945 57.1155 76.4764 61.1766 76.4764C65.2378 76.4764 68.5197 73.1945 68.5197 69.1334C68.5197 65.0723 65.2378 61.7903 61.1766 61.7903Z" fill="white"/>
<path d="M61.1772 74.351C58.2967 74.351 55.9355 71.9899 55.9355 69.1093C55.9355 66.2288 58.2967 63.8677 61.1772 63.8677C64.0578 63.8677 66.4189 66.2288 66.4189 69.1093C66.4189 71.9899 64.0578 74.351 61.1772 74.351ZM61.1772 66.2052C59.5717 66.2052 58.273 67.5038 58.273 69.1093C58.273 70.7149 59.5717 72.0135 61.1772 72.0135C62.7828 72.0135 64.0814 70.7149 64.0814 69.1093C64.0814 67.5038 62.7828 66.2052 61.1772 66.2052Z" fill="white"/>
<path d="M52.5592 70.2903H49.1356C48.4981 70.2903 47.9551 69.7709 47.9551 69.1098C47.9551 68.4486 48.4745 67.9292 49.1356 67.9292H52.5592C53.1967 67.9292 53.7398 68.4486 53.7398 69.1098C53.7398 69.7709 53.2204 70.2903 52.5592 70.2903Z" fill="white"/>
<path d="M73.2409 70.2903H69.8173C69.1798 70.2903 68.6367 69.7709 68.6367 69.1098C68.6367 68.4486 69.1562 67.9292 69.8173 67.9292H73.2409C73.8784 67.9292 74.4214 68.4486 74.4214 69.1098C74.4214 69.7709 73.902 70.2903 73.2409 70.2903Z" fill="white"/>
<path d="M61.1766 61.649C60.5391 61.649 59.9961 61.1295 59.9961 60.4684V57.0448C59.9961 56.4073 60.5155 55.8643 61.1766 55.8643C61.8378 55.8643 62.3572 56.3837 62.3572 57.0448V60.4684C62.3572 61.1059 61.8378 61.649 61.1766 61.649Z" fill="white"/>
<path d="M61.1766 82.3316C60.5391 82.3316 59.9961 81.8122 59.9961 81.151V77.7274C59.9961 77.0899 60.5155 76.5469 61.1766 76.5469C61.8378 76.5469 62.3572 77.0663 62.3572 77.7274V81.151C62.3572 81.7885 61.8378 82.3316 61.1766 82.3316Z" fill="white"/>
<path d="M55.085 64.1757C54.7781 64.1757 54.4947 64.0577 54.2586 63.8216L51.8267 61.3896C51.3781 60.941 51.3781 60.1855 51.8267 59.7368C52.2753 59.2882 53.0309 59.2882 53.4795 59.7368L55.9114 62.1688C56.36 62.6174 56.36 63.373 55.9114 63.8216C55.6753 64.0577 55.392 64.1757 55.085 64.1757Z" fill="white"/>
<path d="M69.7003 78.7905C69.3933 78.7905 69.11 78.6724 68.8739 78.4363L66.4419 76.0044C65.9933 75.5558 65.9933 74.8002 66.4419 74.3516C66.8905 73.903 67.6461 73.903 68.0947 74.3516L70.5267 76.7835C70.9753 77.2321 70.9753 77.9877 70.5267 78.4363C70.2905 78.6724 70.0072 78.7905 69.7003 78.7905Z" fill="white"/>
<path d="M67.2918 64.1757C66.9848 64.1757 66.7015 64.0577 66.4654 63.8216C66.0168 63.373 66.0168 62.6174 66.4654 62.1688L68.8973 59.7368C69.3459 59.2882 70.1015 59.2882 70.5501 59.7368C70.9987 60.1855 70.9987 60.941 70.5501 61.3896L68.1181 63.8216C67.882 64.0577 67.5987 64.1757 67.2918 64.1757Z" fill="white"/>
<path d="M52.6531 78.7905C52.3461 78.7905 52.0628 78.6724 51.8267 78.4363C51.3781 77.9877 51.3781 77.2321 51.8267 76.7835L54.2586 74.3516C54.7072 73.903 55.4628 73.903 55.9114 74.3516C56.36 74.8002 56.36 75.5558 55.9114 76.0044L53.4795 78.4363C53.2434 78.6724 52.96 78.7905 52.6531 78.7905Z" fill="white"/>
</g>
<defs>
<clipPath id="clip0_1517_3448">
<rect width="85" height="85" fill="white"/>
</clipPath>
</defs>
</svg>
