<svg width="85" height="85" viewBox="0 0 85 85" fill="none" xmlns="http://www.w3.org/2000/svg">
<g clip-path="url(#clip0_1517_3456)">
<path d="M61.979 77.8223H24.2957C20.2818 77.8223 17.0234 74.564 17.0234 70.5501V15.2293C17.0234 11.2154 20.2818 7.95703 24.2957 7.95703H61.979C65.9929 7.95703 69.2512 11.2154 69.2512 15.2293V70.5501C69.2512 74.564 65.9929 77.8223 61.979 77.8223ZM24.272 10.2945C21.5568 10.2945 19.3373 12.514 19.3373 15.2056V70.5265C19.3373 73.2418 21.5568 75.4376 24.272 75.4376H61.9554C64.6707 75.4376 66.8901 73.2181 66.8901 70.5265V15.2293C66.8901 12.514 64.6707 10.3181 61.9554 10.3181H24.272V10.2945Z" fill="white"/>
<path d="M17.6839 21.4392H12.9852C12.3477 21.4392 11.8047 20.9198 11.8047 20.2587C11.8047 19.5976 12.3241 19.0781 12.9852 19.0781H17.6839C18.3214 19.0781 18.8644 19.5976 18.8644 20.2587C18.8644 20.9198 18.345 21.4392 17.6839 21.4392Z" fill="white"/>
<path d="M17.6839 32.7488H12.9852C12.3477 32.7488 11.8047 32.2294 11.8047 31.5683C11.8047 30.9071 12.3241 30.3877 12.9852 30.3877H17.6839C18.3214 30.3877 18.8644 30.9071 18.8644 31.5683C18.8644 32.2294 18.345 32.7488 17.6839 32.7488Z" fill="white"/>
<path d="M17.6839 44.0589H12.9852C12.3477 44.0589 11.8047 43.5394 11.8047 42.8783C11.8047 42.2172 12.3241 41.6978 12.9852 41.6978H17.6839C18.3214 41.6978 18.8644 42.2172 18.8644 42.8783C18.8644 43.5394 18.345 44.0589 17.6839 44.0589Z" fill="white"/>
<path d="M17.6839 55.3684H12.9852C12.3477 55.3684 11.8047 54.849 11.8047 54.1879C11.8047 53.5268 12.3241 53.0073 12.9852 53.0073H17.6839C18.3214 53.0073 18.8644 53.5268 18.8644 54.1879C18.8644 54.849 18.345 55.3684 17.6839 55.3684Z" fill="white"/>
<path d="M17.6839 66.6785H12.9852C12.3477 66.6785 11.8047 66.1591 11.8047 65.4979C11.8047 64.8368 12.3241 64.3174 12.9852 64.3174H17.6839C18.3214 64.3174 18.8644 64.8368 18.8644 65.4979C18.8644 66.1591 18.345 66.6785 17.6839 66.6785Z" fill="white"/>
<path d="M43.1367 41.248C38.32 41.248 34.377 37.3285 34.377 32.4882C34.377 27.648 38.2964 23.7285 43.1367 23.7285C47.977 23.7285 51.8964 27.648 51.8964 32.4882C51.8964 37.3285 47.977 41.248 43.1367 41.248ZM43.1367 26.0896C39.595 26.0896 36.7145 28.9702 36.7145 32.5118C36.7145 36.0535 39.595 38.9341 43.1367 38.9341C46.6783 38.9341 49.5589 36.0535 49.5589 32.5118C49.5589 28.9702 46.6783 26.0896 43.1367 26.0896Z" fill="white"/>
<path d="M57.423 59.6186H55.0855V58.438C55.0855 51.8505 49.7257 46.4908 43.1382 46.4908C36.5507 46.4908 31.191 51.8505 31.191 58.438V59.6186H28.8535V58.438C28.8535 50.5755 35.2521 44.1533 43.1382 44.1533C51.0243 44.1533 57.423 50.5519 57.423 58.438V59.6186Z" fill="white"/>
</g>
<defs>
<clipPath id="clip0_1517_3456">
<rect width="85" height="85" fill="white"/>
</clipPath>
</defs>
</svg>
