<svg width="60" height="38" viewBox="0 0 60 38" fill="none" xmlns="http://www.w3.org/2000/svg">
<path d="M57 1.00006H50C49.2394 0.99745 48.5067 1.28615 47.9523 1.80687C47.3979 2.32759 47.064 3.04081 47.019 3.80006C39.512 3.24306 36.11 1.71806 33.827 0.691058C32.3692 0.0438954 30.7502 -0.148743 29.1812 0.13829C27.6122 0.425322 26.1663 1.17869 25.032 2.30006L24.372 2.96106C20.5149 2.62967 16.6374 2.60927 12.777 2.90006C12.5639 2.33741 12.1835 1.8536 11.6869 1.51387C11.1904 1.17414 10.6016 0.994809 10 1.00006H3C2.20435 1.00006 1.44129 1.31613 0.87868 1.87874C0.31607 2.44135 0 3.20441 0 4.00006L0 22.0001C0 22.7957 0.31607 23.5588 0.87868 24.1214C1.44129 24.684 2.20435 25.0001 3 25.0001H8.363C8.89153 25.0019 9.411 24.8628 9.86797 24.5973C10.3249 24.3317 10.7029 23.9492 10.963 23.4891C12.7543 25.0522 14.4124 26.7618 15.92 28.6001C17.632 30.5501 19.763 32.9771 22.633 35.8511C23.131 36.351 23.7524 36.7102 24.4341 36.8924C25.1158 37.0746 25.8335 37.0732 26.5145 36.8884C27.1955 36.7036 27.8155 36.3419 28.3115 35.8401C28.8076 35.3382 29.1621 34.7141 29.339 34.0311C30.1149 34.6279 31.0795 34.9259 32.0568 34.8709C33.0341 34.8158 33.9591 34.4113 34.663 33.7311C35.2223 33.1638 35.6 32.4428 35.748 31.6601C36.497 32.0115 37.3353 32.1268 38.1514 31.9905C38.9675 31.8542 39.7228 31.4728 40.317 30.8971C40.9875 30.2278 41.3974 29.3414 41.473 28.3971C41.9615 28.5148 42.4674 28.543 42.966 28.4801C43.566 28.4073 44.1411 28.1967 44.6462 27.8649C45.1514 27.533 45.5729 27.0888 45.878 26.5671C46.1421 26.0981 46.3089 25.5807 46.3684 25.0458C46.4278 24.5109 46.3787 23.9695 46.224 23.4541C47.201 22.9361 47.994 22.4541 48.624 22.0391L48.645 22.2721C48.71 23.0194 49.0539 23.7149 49.6082 24.2204C50.1626 24.7258 50.8868 25.0041 51.637 25.0001H57C57.7957 25.0001 58.5587 24.684 59.1213 24.1214C59.6839 23.5588 60 22.7957 60 22.0001V4.00006C60 3.20441 59.6839 2.44135 59.1213 1.87874C58.5587 1.31613 57.7957 1.00006 57 1.00006ZM8.363 23.0001H3C2.73478 23.0001 2.48043 22.8947 2.29289 22.7072C2.10536 22.5196 2 22.2653 2 22.0001V4.00006C2 3.73484 2.10536 3.48049 2.29289 3.29295C2.48043 3.10542 2.73478 3.00006 3 3.00006H10C10.1393 2.99949 10.2771 3.02802 10.4047 3.0838C10.5323 3.13959 10.6468 3.22141 10.7409 3.32402C10.8351 3.42663 10.9067 3.54777 10.9514 3.67968C10.996 3.8116 11.0125 3.95137 11 4.09006L9.364 22.0901C9.34146 22.3396 9.22609 22.5715 9.04073 22.74C8.85537 22.9085 8.61351 23.0013 8.363 23.0001ZM44.146 25.5651C43.9943 25.8203 43.7856 26.037 43.5364 26.1983C43.2871 26.3596 43.004 26.4612 42.709 26.4951C42.4036 26.5378 42.0925 26.5102 41.7995 26.4143C41.5064 26.3185 41.2391 26.157 41.018 25.9421L33.949 18.8661C33.7604 18.6839 33.5078 18.5831 33.2456 18.5854C32.9834 18.5877 32.7326 18.6928 32.5472 18.8782C32.3618 19.0636 32.2566 19.3145 32.2543 19.5767C32.252 19.8389 32.3528 20.0915 32.535 20.2801L38.9 26.6501V26.6561L38.906 26.6611C39.2778 27.0364 39.486 27.5437 39.4851 28.0721C39.4841 28.6005 39.2742 29.107 38.901 29.4811C38.521 29.8496 38.0124 30.0556 37.483 30.0556C36.9536 30.0556 36.445 29.8496 36.065 29.4811L29 22.4051C28.9072 22.3121 28.7969 22.2383 28.6756 22.1879C28.5542 22.1376 28.4241 22.1116 28.2927 22.1115C28.1613 22.1114 28.0312 22.1372 27.9098 22.1874C27.7883 22.2376 27.678 22.3112 27.585 22.4041C27.492 22.4969 27.4182 22.6072 27.3679 22.7285C27.3175 22.8499 27.2915 22.98 27.2914 23.1114C27.2914 23.2427 27.3171 23.3729 27.3673 23.4943C27.4175 23.6157 27.4912 23.7261 27.584 23.8191L33.238 29.4811C33.424 29.6668 33.5715 29.8874 33.6721 30.1302C33.7728 30.373 33.8246 30.6332 33.8246 30.8961C33.8246 31.1589 33.7728 31.4191 33.6721 31.6619C33.5715 31.9047 33.424 32.1253 33.238 32.3111C32.8585 32.6771 32.3518 32.8817 31.8245 32.8817C31.2972 32.8817 30.7905 32.6771 30.411 32.3111L24.042 25.9311C23.9498 25.8355 23.8394 25.7594 23.7174 25.707C23.5954 25.6545 23.4642 25.627 23.3314 25.6258C23.1986 25.6247 23.0669 25.65 22.944 25.7002C22.8211 25.7505 22.7095 25.8248 22.6156 25.9187C22.5217 26.0126 22.4475 26.1242 22.3972 26.2471C22.3469 26.37 22.3216 26.5017 22.3228 26.6345C22.3239 26.7672 22.3515 26.8985 22.4039 27.0205C22.4563 27.1425 22.5325 27.2528 22.628 27.3451L26.871 31.5931L26.885 31.6031C27.2557 31.9796 27.4629 32.4871 27.4616 33.0155C27.4603 33.5439 27.2506 34.0504 26.878 34.4251C26.4944 34.7875 25.9867 34.9895 25.459 34.9895C24.9313 34.9895 24.4236 34.7875 24.04 34.4251C21.215 31.5971 19.108 29.1971 17.415 27.2681C15.6535 25.0646 13.6447 23.0708 11.428 21.3261L12.93 4.90006C16.1128 4.64154 19.3105 4.62315 22.496 4.84506L18.743 8.60006C18.1121 9.23056 17.6824 10.034 17.5081 10.9087C17.3338 11.7834 17.4227 12.6902 17.7637 13.5144C18.1048 14.3385 18.6825 15.0431 19.4239 15.5389C20.1653 16.0348 21.0371 16.2996 21.929 16.3001H21.937C22.5272 16.3009 23.1116 16.1839 23.656 15.9559C24.2003 15.7278 24.6937 15.3933 25.107 14.9721L29.707 10.3721C29.7999 10.2791 29.9102 10.2053 30.0316 10.155C30.153 10.1047 30.2831 10.0788 30.4145 10.0788C30.5459 10.0788 30.676 10.1047 30.7974 10.155C30.9188 10.2053 31.0291 10.2791 31.122 10.3721L43.685 22.9481C43.8397 23.1031 43.9723 23.2788 44.079 23.4701C44.2712 23.7834 44.3784 24.1413 44.3901 24.5087C44.4019 24.876 44.3177 25.2401 44.146 25.5651ZM45.246 21.7071C45.195 21.6501 45.146 21.5871 45.095 21.5331L32.537 8.95106C31.9736 8.3895 31.2105 8.07418 30.415 8.07418C29.6195 8.07418 28.8564 8.3895 28.293 8.95106L23.688 13.5571C23.4595 13.7906 23.1866 13.9761 22.8854 14.1027C22.5842 14.2293 22.2607 14.2943 21.934 14.2941H21.929C21.6003 14.2944 21.2749 14.2295 20.9715 14.1029C20.6682 13.9764 20.393 13.7909 20.162 13.5571C19.6937 13.0874 19.4305 12.4513 19.43 11.7881C19.4277 11.4592 19.4909 11.1331 19.6159 10.8289C19.7409 10.5247 19.9252 10.2484 20.158 10.0161L26.447 3.71606C27.2936 2.8795 28.3726 2.31753 29.5434 2.10347C30.7141 1.8894 31.9222 2.03319 33.01 2.51606C35.299 3.54706 39.09 5.24406 47.152 5.81606L48.419 19.7551C47.4134 20.4852 46.3536 21.1377 45.249 21.7071H45.246ZM58 22.0001C58 22.2653 57.8946 22.5196 57.7071 22.7072C57.5196 22.8947 57.2652 23.0001 57 23.0001H51.637C51.3867 23.0011 51.1451 22.9082 50.9599 22.7397C50.7747 22.5712 50.6595 22.3394 50.637 22.0901L49.001 4.09006C48.9885 3.95146 49.005 3.81176 49.0496 3.67992C49.0941 3.54808 49.1657 3.42699 49.2597 3.32439C49.3538 3.2218 49.4682 3.13996 49.5956 3.08411C49.7231 3.02826 49.8608 2.99963 50 3.00006H57C57.2652 3.00006 57.5196 3.10542 57.7071 3.29295C57.8946 3.48049 58 3.73484 58 4.00006V22.0001Z" fill="white"/>
</svg>
