<svg width="185" height="63" viewBox="0 0 185 63" fill="none" xmlns="http://www.w3.org/2000/svg">
<path d="M33.154 19.422C33.154 16.9076 31.0752 14.8787 28.5385 14.8787H7.16992V16.5954H28.5209C30.1063 16.5954 31.3923 17.8613 31.3923 19.422V34.1792H7.16992V35.896H31.3923V39.7457H7.16992V41.4625H33.1363V19.422H33.154Z" fill="white"/>
<path d="M49.6965 25.0925C49.1856 24.3122 48.3224 23.844 47.3888 23.844H42.5091C41.1878 23.844 40.1309 24.9018 40.1309 26.185V32.5319H50.5949C51.3877 32.5319 52.1099 32.1157 52.4799 31.4394C52.8498 30.7631 52.8322 29.9307 52.4094 29.2891L49.6965 25.0925ZM50.9473 30.607C50.9473 30.607 50.8063 30.8151 50.5949 30.8151H41.8749V26.185C41.8749 25.8382 42.1567 25.5608 42.5091 25.5608H47.3888C47.7235 25.5608 48.0406 25.7342 48.2167 26.0116L50.9296 30.2082C51.0353 30.3816 50.9825 30.5376 50.9296 30.607H50.9473Z" fill="white"/>
<path d="M41.8554 33.9885C41.3798 33.9885 40.9746 34.37 40.9746 34.8556C40.9746 35.3411 41.3622 35.7226 41.8554 35.7226H46.2595C46.7351 35.7226 47.1403 35.3411 47.1403 34.8556C47.1403 34.37 46.7528 33.9885 46.2595 33.9885H41.8554Z" fill="white"/>
<path d="M48.3223 45.3468C48.3223 45.815 48.7098 46.2138 49.2031 46.2138H53.6072C54.0828 46.2138 54.488 45.8323 54.488 45.3468C54.488 44.8612 54.1004 44.4797 53.6072 44.4797H49.2031C48.7274 44.4797 48.3223 44.8612 48.3223 45.3468Z" fill="white"/>
<path d="M56.213 29.7572L51.2452 22.4566C50.3996 21.2081 48.9727 20.4624 47.4577 20.4624H40.2174C37.7863 20.4624 35.8309 22.4046 35.8309 24.7977V41.4797H37.575V24.7977C37.575 23.3584 38.7552 22.1965 40.2174 22.1965H47.4577C48.3914 22.1965 49.2722 22.6474 49.8007 23.4277L54.7685 30.7283C55.3146 31.5433 55.614 32.4797 55.614 33.4682V46.3526C55.614 47.2196 54.8918 47.9306 54.0286 47.9306H47.6339C47.581 47.6358 47.4753 47.3584 47.3872 47.0982C47.3872 47.0636 47.3696 47.0115 47.352 46.9768C47.2639 46.7688 47.1758 46.578 47.0701 46.3873C47.0173 46.2659 46.9468 46.1618 46.8764 46.0404C46.7883 45.8844 46.6826 45.7456 46.5593 45.6069C46.4536 45.4682 46.3479 45.3294 46.2246 45.2081C46.1189 45.104 46.0132 45 45.9075 44.8959C45.7665 44.7572 45.608 44.6358 45.4318 44.5144C45.3261 44.4277 45.2204 44.3584 45.0971 44.289C44.9033 44.1676 44.7096 44.0636 44.5158 43.9769C44.4101 43.9248 44.3044 43.8728 44.1811 43.8208C43.952 43.7341 43.723 43.6647 43.4764 43.6127C43.3707 43.578 43.265 43.5433 43.1593 43.526C42.807 43.4566 42.4547 43.4219 42.0847 43.4219C41.7148 43.4219 41.3625 43.4566 41.0101 43.526C40.9044 43.5433 40.7987 43.578 40.693 43.6127C40.4464 43.6647 40.2174 43.7341 39.9884 43.8208C39.8651 43.8728 39.7594 43.9248 39.6537 43.9769C39.4599 44.0636 39.2661 44.1676 39.0723 44.289C38.949 44.3584 38.8433 44.4451 38.7376 44.5144C38.5791 44.6358 38.4205 44.7572 38.2796 44.8959C38.1739 45 38.0506 45.104 37.9449 45.2081C37.8216 45.3294 37.7159 45.4682 37.6102 45.6069C37.5045 45.7456 37.3988 45.8844 37.2931 46.0404C37.2226 46.1445 37.1698 46.2659 37.0993 46.3699C36.9936 46.5607 36.8879 46.7514 36.7998 46.9595C36.7998 46.9942 36.7822 47.0289 36.7646 47.0809C36.6589 47.3584 36.5708 47.6358 36.518 47.9133H30.7751C30.7222 47.6531 30.6341 47.393 30.5461 47.1329C30.5284 47.0636 30.5108 47.0115 30.4932 46.9422C30.4227 46.7514 30.317 46.5607 30.2113 46.3873C30.1409 46.2659 30.088 46.1271 29.9999 46.0058C29.9119 45.867 29.8062 45.7283 29.7005 45.5896C29.5948 45.4508 29.4715 45.3121 29.3481 45.1734C29.2424 45.0693 29.1367 44.9653 29.031 44.8786C28.8725 44.7399 28.714 44.6185 28.5554 44.4971C28.4497 44.4277 28.344 44.341 28.2383 44.2716C28.0445 44.1503 27.8508 44.0462 27.6394 43.9595C27.5337 43.9075 27.428 43.8555 27.3047 43.8034C27.0756 43.7167 26.8466 43.6474 26.6 43.5953C26.4943 43.5607 26.4062 43.526 26.2829 43.5086C25.9306 43.4393 25.5783 43.4046 25.2083 43.4046C24.8384 43.4046 24.486 43.4393 24.1337 43.5086C24.028 43.526 23.9223 43.5607 23.8166 43.5953C23.57 43.6474 23.341 43.7167 23.112 43.8034C22.9887 43.8555 22.883 43.9075 22.7773 43.9595C22.5835 44.0462 22.3721 44.1503 22.1959 44.2716C22.0902 44.341 21.9669 44.4277 21.8612 44.4971C21.7027 44.6185 21.5441 44.7399 21.3856 44.8786C21.2799 44.9826 21.1742 45.0867 21.0685 45.1907C20.9452 45.3121 20.8395 45.4508 20.7338 45.5896C20.6281 45.7283 20.5224 45.867 20.4167 46.0231C20.3462 46.1271 20.2934 46.2485 20.2229 46.3699C20.1172 46.5607 20.0115 46.7514 19.941 46.9595C19.941 46.9942 19.9234 47.0289 19.9058 47.0809C19.8001 47.3584 19.712 47.6358 19.6592 47.9133H17.7919C17.281 45.3468 14.9909 43.4046 12.2427 43.4046C9.12464 43.4046 6.58789 45.9017 6.58789 48.9711C6.58789 52.0404 9.12464 54.5375 12.2427 54.5375C15.1318 54.5375 17.4924 52.3873 17.8271 49.63H19.6063C19.941 52.3873 22.3016 54.5375 25.1907 54.5375C28.0798 54.5375 30.4404 52.3873 30.7751 49.63H36.4475C36.7822 52.3873 39.1428 54.5375 42.0319 54.5375C44.9209 54.5375 47.2815 52.3873 47.6162 49.63H53.9757C55.8254 49.63 57.3228 48.156 57.3228 46.3352V33.4508C57.3228 32.1329 56.9353 30.8497 56.1778 29.7572H56.213ZM12.2956 52.8034C10.1464 52.8034 8.38475 51.0867 8.38475 48.9537C8.38475 46.8208 10.1288 45.104 12.2956 45.104C14.4624 45.104 16.2064 46.8208 16.2064 48.9537C16.2064 51.0867 14.4624 52.8034 12.2956 52.8034ZM25.2435 52.8034C23.1296 52.8034 21.4032 51.1214 21.3503 49.0578V48.7977C21.3856 48.0347 21.6498 47.3237 22.0726 46.7341C22.0902 46.6994 22.1255 46.6821 22.1431 46.6474C22.2664 46.4913 22.3897 46.3352 22.5483 46.1965C22.6187 46.1271 22.6892 46.0751 22.7596 46.0231C22.8653 45.9364 22.9887 45.8323 23.112 45.7456C23.2177 45.6763 23.3586 45.6069 23.4819 45.5549C23.57 45.5029 23.6757 45.4508 23.7638 45.3988C23.9223 45.3295 24.0985 45.2948 24.257 45.2427C24.3275 45.2254 24.398 45.1907 24.486 45.1734C24.7327 45.1214 24.9969 45.104 25.2612 45.104C25.5254 45.104 25.7897 45.1387 26.0363 45.1734C26.1067 45.1734 26.1772 45.2081 26.2477 45.2427C26.4238 45.2948 26.6 45.3295 26.7585 45.3988C26.8466 45.4335 26.9171 45.4855 27.0052 45.5202C27.1461 45.5896 27.287 45.6589 27.4104 45.7283C27.516 45.7977 27.6217 45.8844 27.7098 45.9711C27.7979 46.0404 27.886 46.1098 27.9741 46.1792C28.0974 46.3005 28.2207 46.4393 28.3264 46.578C28.3616 46.63 28.3969 46.6647 28.4321 46.6994C28.573 46.8901 28.6787 47.0809 28.7844 47.3063C28.9958 47.7399 29.1191 48.2427 29.1367 48.7456V48.9884C29.1015 51.0693 27.3751 52.7514 25.2435 52.7514V52.8034ZM42.0847 52.8034C39.9708 52.8034 38.2444 51.1214 38.1915 49.0578V48.7977C38.2268 48.0347 38.491 47.3237 38.9138 46.7341C38.9138 46.7167 38.949 46.6994 38.9666 46.6647C39.09 46.4913 39.2309 46.3352 39.3718 46.1965C39.4247 46.1445 39.4951 46.0925 39.5656 46.0404C39.6889 45.9364 39.8122 45.8323 39.9355 45.7456C40.0412 45.6763 40.1645 45.6242 40.2702 45.5722C40.3759 45.5202 40.464 45.4508 40.5873 45.4162C40.7459 45.3468 40.9044 45.3121 41.063 45.2774C41.1511 45.2601 41.2215 45.2254 41.3096 45.2081C41.5562 45.156 41.8205 45.1387 42.0847 45.1387C42.349 45.1387 42.6132 45.1734 42.8598 45.2081C42.9303 45.2081 43.0184 45.2601 43.0888 45.2774C43.2474 45.3295 43.4236 45.3641 43.5821 45.4335C43.6878 45.4682 43.7759 45.5375 43.864 45.5896C43.9873 45.6589 44.1106 45.711 44.2339 45.7803C44.3572 45.867 44.4629 45.9537 44.5862 46.0578C44.6567 46.1098 44.7272 46.1618 44.7976 46.2312C44.9386 46.3699 45.0795 46.526 45.2028 46.6821C45.2204 46.7167 45.2557 46.7341 45.2733 46.7688C45.6961 47.3584 45.9427 48.0693 45.9779 48.8323V49.0925C45.9427 51.1734 44.2163 52.8381 42.1023 52.8381L42.0847 52.8034Z" fill="white"/>
<path d="M178.037 27.3989C177.747 27.0347 177.321 26.8093 176.843 26.8093H172.474V21.1908H150.681V32.1677H147.712V21.4683H148.565C149.026 21.4683 149.418 21.0868 149.418 20.6012C149.418 20.1157 149.043 19.7342 148.565 19.7342H136.448V15.711C136.448 15.2428 136.073 14.844 135.595 14.844C135.117 14.844 134.742 15.2255 134.742 15.711V19.7342H131.141C130.68 19.7342 130.287 20.1157 130.287 20.6012C130.287 21.0868 130.663 21.4683 131.141 21.4683H131.994V32.1677H131.533C130.953 32.1677 130.407 32.4278 130.031 32.8787C129.656 33.3295 129.502 33.9191 129.622 34.5087L132.779 42.3989C132.83 44.5839 133.12 47.029 134.673 48.9365H134.69C134.878 49.1446 135.185 49.2833 135.492 49.2313C137.233 48.9018 138.889 49.0752 140.424 49.7688C141.943 50.4105 143.513 50.4451 144.879 49.8209C147.063 48.7977 149.589 48.7977 151.79 49.8209C152.473 50.133 153.207 50.2891 153.941 50.2891C154.674 50.2891 155.408 50.133 156.091 49.8209C158.292 48.7977 160.801 48.7977 163.002 49.8209C164.351 50.4278 165.938 50.4105 167.457 49.7515C168.993 49.0752 170.682 48.8845 172.355 49.2139C172.798 49.3006 173.259 49.0058 173.344 48.5376C173.344 48.4856 173.344 48.4336 173.344 48.3989C173.413 44.2544 175.58 37.4047 177.013 32.8613C177.594 31.0232 178.054 29.5839 178.259 28.6995C178.362 28.2486 178.259 27.7631 177.969 27.3989H178.037ZM146.022 21.4683V32.1157H133.718V21.4683H146.022ZM170.784 26.8093H165.631V26.844H162.422V22.9249H170.784V26.8267V26.8093ZM162.422 28.5608H164.504L162.422 31.8382V28.5608ZM160.733 22.9076V26.8267H152.388V22.9076H160.733ZM152.388 28.5608H160.733V32.1677H152.388V28.5608ZM175.46 32.3411C174.095 36.659 172.116 43.0058 171.774 47.4278C170.068 47.2544 168.395 47.4972 166.842 48.1908C165.767 48.659 164.658 48.6764 163.753 48.2775C161.108 47.0463 158.07 47.0636 155.442 48.2775C154.538 48.6937 153.463 48.6937 152.541 48.2775C149.913 47.0636 146.858 47.0636 144.23 48.2775C143.309 48.6937 142.199 48.659 141.141 48.2082C139.486 47.4625 137.626 47.2371 135.765 47.4972C134.742 45.9885 134.554 44.0116 134.503 42.2255L131.311 34.1619C131.311 34.1619 131.345 34.0579 131.362 34.0232C131.397 33.9885 131.448 33.9365 131.55 33.9365H151.449C151.449 33.9365 151.483 33.9365 151.517 33.9365C151.551 33.9365 151.568 33.9365 151.585 33.9365H161.501C161.501 33.9365 161.535 33.9365 161.569 33.9365C161.603 33.9365 161.62 33.9365 161.637 33.9365H163.139L166.552 28.5954H171.638C171.723 28.5954 171.808 28.5781 171.894 28.5434L176.621 28.5087C176.416 29.3584 175.972 30.7631 175.46 32.3758V32.3411Z" fill="white"/>
<path d="M168.668 40.9768C168.207 40.9768 167.814 41.3583 167.814 41.8439V42.6242C167.814 43.0924 168.19 43.4913 168.668 43.4913C169.146 43.4913 169.521 43.1098 169.521 42.6242V41.8439C169.521 41.3757 169.146 40.9768 168.668 40.9768Z" fill="white"/>
<path d="M144.861 22.8035H134.895V27.711H144.861V22.8035ZM143.171 25.9942H136.601V24.5376H143.171V25.9942Z" fill="white"/>
<path d="M172.987 52.9421C170.888 52.4912 168.754 52.6993 166.843 53.549C165.785 54.0173 164.676 54.0346 163.771 53.6184C161.143 52.4045 158.088 52.4045 155.46 53.6184C154.556 54.0346 153.463 54.0346 152.559 53.6184C149.931 52.4045 146.859 52.4045 144.248 53.6184C143.343 54.0346 142.234 53.9999 141.176 53.549C139.248 52.6993 137.131 52.4912 135.032 52.9421C134.572 53.0462 134.281 53.497 134.384 53.9652C134.486 54.4334 134.93 54.7282 135.391 54.6242C137.148 54.2427 138.923 54.4161 140.528 55.1271C142.029 55.786 143.651 55.8034 144.982 55.1964C147.149 54.1907 149.709 54.1907 151.893 55.1964C152.576 55.5086 153.31 55.6647 154.044 55.6647C154.777 55.6647 155.511 55.5086 156.194 55.1964C158.378 54.1907 160.921 54.1907 163.106 55.1964C164.437 55.8034 166.058 55.786 167.56 55.1271C169.164 54.4334 170.939 54.26 172.697 54.6242C173.14 54.7282 173.601 54.4334 173.703 53.9652C173.806 53.497 173.499 53.0462 173.055 52.9421H172.987Z" fill="white"/>
<path d="M75.6004 26.4799C75.6004 23.9654 73.5217 21.9365 70.985 21.9365H68.9062V23.6533H70.985C72.5704 23.6533 73.8564 24.9192 73.8564 26.4799V47.8267H68.9062V49.5435H75.6004V26.4799Z" fill="white"/>
<path d="M116.205 45.3468C116.205 44.8786 115.817 44.4797 115.324 44.4797H110.92C110.444 44.4797 110.039 44.8612 110.039 45.3468C110.039 45.8323 110.427 46.2138 110.92 46.2138H115.324C115.8 46.2138 116.205 45.8323 116.205 45.3468Z" fill="white"/>
<path d="M107.715 49.6301H115.748C117.598 49.6301 119.095 48.1562 119.095 46.3353C119.095 33.1562 109.054 23.2718 94.6613 22.266L89.9225 22.2313L95.9825 19.2833L86.7516 14.7747L77.5206 19.2833L83.4925 22.1966H82.6998C80.2688 22.1966 78.2957 24.1388 78.2957 26.5145V49.6128H83.6159C83.7744 50.844 84.3029 51.9365 85.1309 52.7862H68.9062V54.503H118.567V52.7862H106.218C107.046 51.9365 107.574 50.8267 107.733 49.6128L107.715 49.6301ZM86.7339 16.6995L92.0364 19.2833L86.7339 21.8671L81.4314 19.2833L86.7339 16.6995ZM102.131 52.8036C100.21 52.8036 98.6249 51.4336 98.2902 49.6301H105.953C105.636 51.4336 104.033 52.8036 102.113 52.8036H102.131ZM96.5462 49.6301C96.7048 50.8614 97.2332 51.9538 98.0612 52.8036H93.252C94.0799 51.9538 94.6084 50.844 94.767 49.6301H96.5462ZM115.695 37.9423C115.061 37.8036 114.427 37.6648 113.828 37.5434C104.579 35.6012 99.4001 34.4741 97.8322 24.4336C106.323 25.977 112.806 30.9885 115.678 37.9423H115.695ZM80.0221 26.5319C80.0221 25.0926 81.2024 23.9307 82.6646 23.9307H93.481L94.5203 24.0001C95.0312 24.0348 95.5421 24.1041 96.0353 24.1735C97.6737 35.896 103.963 37.2313 113.475 39.2429C114.321 39.4163 115.219 39.607 116.136 39.8151C116.206 39.8151 116.259 39.8325 116.329 39.8325C116.347 39.8325 116.365 39.8325 116.382 39.8325C117.016 41.8787 117.333 44.0637 117.333 46.37C117.333 47.2371 116.611 47.9481 115.73 47.9481H80.0397V26.5666L80.0221 26.5319ZM85.3423 49.6301H93.0053C92.6882 51.4336 91.0852 52.8036 89.165 52.8036C87.2448 52.8036 85.6593 51.4336 85.3246 49.6301H85.3423Z" fill="white"/>
<path d="M90.1868 25.9768H83.2988C82.3123 25.9768 81.502 26.7051 81.502 27.6069V33.7976C81.502 34.6993 82.3123 35.4277 83.2988 35.4277H90.1868C91.1733 35.4277 91.9836 34.6993 91.9836 33.7976V27.6069C91.9836 26.7051 91.1733 25.9768 90.1868 25.9768ZM90.1868 33.7109L83.2636 33.7976L83.2988 27.6936L90.222 27.6069L90.2573 33.6936C90.2573 33.6936 90.2396 33.7109 90.1692 33.7109H90.1868Z" fill="white"/>
</svg>
