<svg width="85" height="85" viewBox="0 0 85 85" fill="none" xmlns="http://www.w3.org/2000/svg">
<g clip-path="url(#clip0_1517_3438)">
<path d="M42.8773 67.6222C29.23 67.6222 18.1328 56.525 18.1328 42.8777C18.1328 29.2305 29.23 18.1333 42.8773 18.1333C56.5245 18.1333 67.6217 29.2305 67.6217 42.8777C67.6217 56.525 56.5245 67.6222 42.8773 67.6222ZM42.8773 20.4944C30.5286 20.4944 20.4939 30.5291 20.4939 42.8777C20.4939 55.2264 30.5286 65.2611 42.8773 65.2611C55.2259 65.2611 65.2606 55.2264 65.2606 42.8777C65.2606 30.5291 55.2259 20.4944 42.8773 20.4944Z" fill="white"/>
<path d="M42.8785 82.1904L32.4424 74.989L19.7632 74.6821L15.5605 62.7348L5.47852 55.0612L9.11463 42.9251L5.47852 30.789L15.5605 23.1154L19.7632 11.1446L32.4424 10.8376L42.8785 3.63623L53.3146 10.8376L65.9938 11.1446L70.1966 23.0918L80.2785 30.7654L76.6424 42.9015L80.2785 55.0376L70.1966 62.7112L65.9938 74.6585L53.3146 74.9654L42.8785 82.1668V82.1904ZM21.4396 72.3918L33.198 72.6751L42.8785 79.3571L52.5591 72.6751L64.3174 72.3918L68.2132 61.2946L77.5632 54.164L74.1869 42.9015L77.5632 31.639L68.2132 24.5085L64.3174 13.4112L52.5591 13.1279L42.8785 6.44595L33.198 13.1279L21.4396 13.4112L17.5438 24.5085L8.19379 31.639L11.5702 42.9015L8.19379 54.164L17.5438 61.2946L21.4396 72.3918Z" fill="white"/>
<path d="M41.7204 52.9598L30.5996 41.9806L32.9607 39.5959L41.3663 47.907L52.6524 33.1265L55.3204 35.157L41.7204 52.9598Z" fill="white"/>
</g>
<defs>
<clipPath id="clip0_1517_3438">
<rect width="85" height="85" fill="white"/>
</clipPath>
</defs>
</svg>
