<svg width="65" height="65" viewBox="0 0 65 65" fill="none" xmlns="http://www.w3.org/2000/svg">
<g clip-path="url(#clip0_1777_6367)">
<path d="M55.2499 9.44287H22.8763C15.961 9.44287 10.3457 15.0581 10.3457 21.9734V32.7887H15.8707C12.5665 34.847 10.3457 38.5123 10.3457 42.6832C10.3457 49.1109 15.5818 54.347 22.0096 54.347C26.8665 54.347 31.0193 51.3679 32.7888 47.1429C34.5401 51.3679 38.711 54.347 43.5679 54.347C49.9957 54.347 55.2318 49.1109 55.2318 42.6832C55.2318 38.5123 53.029 34.847 49.7068 32.7887H55.2318V9.44287H55.2499ZM31.904 31.0193H27.5527C29.3402 29.954 30.8207 28.4734 31.904 26.6859V31.0193ZM12.1332 21.9734C12.1332 16.0512 16.954 11.2304 22.8763 11.2304H31.904V20.2582C31.904 26.1804 27.0832 31.0012 21.161 31.0012H12.1332V21.9734ZM22.0096 52.5595C16.5568 52.5595 12.1332 48.1179 12.1332 42.6832C12.1332 37.2484 16.5749 32.8068 22.0096 32.8068H31.886V42.6832C31.886 48.1359 27.4443 52.5595 22.0096 52.5595ZM53.4443 42.6832C53.4443 48.1359 49.0027 52.5595 43.5679 52.5595C38.1332 52.5595 33.6915 48.1179 33.6915 42.6832C33.6915 37.2484 38.1151 32.8068 43.5679 32.8068C49.0207 32.8068 53.4443 37.2484 53.4443 42.6832ZM33.6915 36.4901V32.7707H37.411C35.9124 33.7095 34.6304 34.9734 33.6915 36.4901ZM53.4443 30.9832H33.6915V11.2304H53.4443V30.9832Z" fill="#7C9BFF"/>
</g>
<defs>
<clipPath id="clip0_1777_6367">
<rect width="65" height="65" fill="white"/>
</clipPath>
</defs>
</svg>
