<svg width="65" height="65" viewBox="0 0 65 65" fill="none" xmlns="http://www.w3.org/2000/svg">
<g clip-path="url(#clip0_1777_6154)">
<path d="M34.4508 40.625H7.83691V38.8375H32.6633V17.6764C32.6633 16.0514 31.3452 14.7333 29.7202 14.7333H7.83691V12.9458H29.7202C32.3383 12.9458 34.4508 15.0764 34.4508 17.6764V40.625Z" fill="#7885FF"/>
<path d="M52.3256 31.3266H41.6006V24.7183C41.6006 23.3641 42.702 22.2808 44.0381 22.2808H49.0395C49.9964 22.2808 50.8811 22.7683 51.4048 23.5808L54.1853 27.9502C54.6186 28.6363 54.6367 29.4849 54.2575 30.2072C53.8784 30.9113 53.1381 31.3447 52.3256 31.3447V31.3266ZM43.4061 29.5391H52.3436C52.5603 29.5391 52.6686 29.3947 52.7048 29.3224C52.7409 29.2502 52.8131 29.0877 52.7048 28.8891L49.9242 24.5197C49.7436 24.2308 49.4186 24.0502 49.0756 24.0502H44.0742C43.7131 24.0502 43.4242 24.3391 43.4242 24.7002V29.521L43.4061 29.5391Z" fill="#7885FF"/>
<path d="M47.902 34.6308H43.3881C42.9006 34.6308 42.4854 34.2335 42.4854 33.728C42.4854 33.2224 42.8826 32.8252 43.3881 32.8252H47.902C48.3895 32.8252 48.8048 33.2224 48.8048 33.728C48.8048 34.2335 48.4076 34.6308 47.902 34.6308Z" fill="#7885FF"/>
<path d="M55.4313 45.536H50.9174C50.4299 45.536 50.0146 45.1388 50.0146 44.6332C50.0146 44.1277 50.4119 43.7305 50.9174 43.7305H55.4313C55.9188 43.7305 56.3341 44.1277 56.3341 44.6332C56.3341 45.1388 55.9369 45.536 55.4313 45.536Z" fill="#7885FF"/>
<path d="M38.0978 49.1109H30.37L30.3339 48.2442C30.2436 46.0956 28.4922 44.4164 26.3617 44.4164C24.2311 44.4164 22.4797 46.0956 22.3895 48.2442L22.3533 49.1109H18.002V47.3233H20.7103C21.2158 44.6331 23.5631 42.6289 26.3797 42.6289C29.1964 42.6289 31.5436 44.6331 32.0492 47.3233H38.1339V49.1109H38.0978Z" fill="#7885FF"/>
<path d="M55.8462 49.1112H47.6309L47.5948 48.2625C47.5046 46.1139 45.7532 44.4348 43.6046 44.4348C41.4559 44.4348 39.7226 46.1139 39.6323 48.2625L39.5962 49.1112H37.2129V47.3237H37.9532C38.4768 44.6334 40.8059 42.6292 43.6226 42.6292C46.4393 42.6292 48.7865 44.6334 49.2921 47.3237H55.8643C56.7671 47.3237 57.4893 46.5834 57.4893 45.6987V32.2834C57.4893 31.2723 57.1823 30.2792 56.6226 29.4306L51.5309 21.8292C50.9893 21.0348 50.1046 20.5473 49.1296 20.5473H41.7087C40.2101 20.5473 39.0004 21.757 39.0004 23.2556V40.625H37.2129V23.2556C37.2129 20.7639 39.2351 18.7598 41.7087 18.7598H49.1296C50.7004 18.7598 52.1448 19.5362 53.0115 20.8362L58.1032 28.4375C58.8615 29.575 59.2768 30.9112 59.2768 32.2834V45.6987C59.2768 47.5945 57.7421 49.1292 55.8462 49.1292V49.1112Z" fill="#7885FF"/>
<path d="M13.0908 54.2025C9.89492 54.2025 7.29492 51.6025 7.29492 48.4067C7.29492 45.2108 9.89492 42.6108 13.0908 42.6108C16.2866 42.6108 18.8866 45.2108 18.8866 48.4067C18.8866 51.6025 16.2866 54.2025 13.0908 54.2025ZM13.0908 44.4164C10.888 44.4164 9.08242 46.2039 9.08242 48.4247C9.08242 50.6456 10.8699 52.4331 13.0908 52.4331C15.3116 52.4331 17.0991 50.6456 17.0991 48.4247C17.0991 46.2039 15.3116 44.4164 13.0908 44.4164Z" fill="#7885FF"/>
<path d="M26.3437 54.2025C23.1479 54.2025 20.5479 51.6025 20.5479 48.4067C20.5479 45.2108 23.1479 42.6108 26.3437 42.6108C29.5395 42.6108 32.1395 45.2108 32.1395 48.4067C32.1395 51.6025 29.5395 54.2025 26.3437 54.2025ZM26.3437 44.4164C24.1409 44.4164 22.3354 46.2039 22.3354 48.4247C22.3354 50.6456 24.1229 52.4331 26.3437 52.4331C28.5645 52.4331 30.352 50.6456 30.352 48.4247C30.352 46.2039 28.5645 44.4164 26.3437 44.4164Z" fill="#7885FF"/>
<path d="M43.6044 54.2025C40.4086 54.2025 37.8086 51.6025 37.8086 48.4067C37.8086 45.2108 40.4086 42.6108 43.6044 42.6108C46.8003 42.6108 49.4003 45.2108 49.4003 48.4067C49.4003 51.6025 46.8003 54.2025 43.6044 54.2025ZM43.6044 44.4164C41.4016 44.4164 39.5961 46.2039 39.5961 48.4247C39.5961 50.6456 41.3836 52.4331 43.6044 52.4331C45.8253 52.4331 47.6128 50.6456 47.6128 48.4247C47.6128 46.2039 45.8253 44.4164 43.6044 44.4164Z" fill="#7885FF"/>
<path d="M23.9415 35.7681H16.0512C15.5637 35.7681 15.1484 35.3709 15.1484 34.8653C15.1484 34.3598 15.5457 33.9625 16.0512 33.9625H23.9415C24.8623 33.9625 25.6929 33.4931 26.1623 32.6806C26.6137 31.8862 26.6137 30.9292 26.1623 30.1348L25.1151 28.3292C24.8623 27.8959 25.0068 27.3542 25.4401 27.1014C25.8554 26.8487 26.4151 26.9931 26.6679 27.4264L27.697 29.232C28.4915 30.5862 28.4915 32.2112 27.697 33.5653C26.9207 34.9195 25.5123 35.75 23.9234 35.75L23.9415 35.7681Z" fill="#7885FF"/>
<path d="M18.4709 38.2056C18.2362 38.2056 18.0195 38.1153 17.839 37.9348L14.7695 34.8653L17.839 31.7959C18.182 31.4528 18.7598 31.4528 19.1029 31.7959C19.4459 32.1389 19.4459 32.7167 19.1029 33.0598L17.2973 34.8653L19.1029 36.6709C19.4459 37.0139 19.4459 37.5917 19.1029 37.9348C18.9223 38.1153 18.7056 38.2056 18.4709 38.2056Z" fill="#7885FF"/>
<path d="M24.4469 26.3429C24.14 26.3429 23.833 26.1804 23.6705 25.8915L19.7344 19.0665C19.265 18.2721 18.4525 17.7846 17.5317 17.7846C16.6108 17.7846 15.7803 18.2721 15.3289 19.0665L14.2817 20.8721C14.0289 21.3054 13.4872 21.4498 13.0539 21.1971C12.6205 20.9443 12.4761 20.4026 12.7289 19.9693L13.7761 18.1637C14.5525 16.8096 15.9608 15.9971 17.5317 15.979C19.1025 15.979 20.5108 16.7915 21.2872 18.1457L25.2233 24.9707C25.4761 25.404 25.3317 25.9457 24.8983 26.1984C24.7539 26.2707 24.6094 26.3248 24.4469 26.3248V26.3429Z" fill="#7885FF"/>
<path d="M25.0791 26.5598L20.8902 25.4403C20.4207 25.3139 20.1319 24.8264 20.2583 24.3389C20.3846 23.8514 20.8721 23.5806 21.3596 23.707L23.8152 24.375L24.4652 21.9195C24.5916 21.45 25.0791 21.1612 25.5666 21.2875C26.036 21.4139 26.3249 21.9014 26.1985 22.3889L25.0791 26.5778V26.5598Z" fill="#7885FF"/>
<path d="M11.2846 35.8582C9.74984 35.8582 8.35956 35.0818 7.56511 33.7638C6.75261 32.4096 6.73456 30.7846 7.49289 29.4124L11.3207 22.5151C11.5554 22.0818 12.1151 21.9193 12.5304 22.1721C12.9637 22.4068 13.1262 22.9485 12.8734 23.3818L9.04567 30.279C8.59428 31.0915 8.61234 32.0485 9.09984 32.8429C9.56928 33.6374 10.3998 34.1068 11.3387 34.0707L13.4151 34.0346C13.9568 34.0707 14.3179 34.4137 14.3179 34.9193C14.3179 35.4068 13.9387 35.8221 13.4332 35.8221L11.3568 35.8582H11.2665H11.2846Z" fill="#7885FF"/>
<path d="M13.0538 27.1374C12.6566 27.1374 12.3135 26.8847 12.1872 26.4874L11.483 24.0319L9.02744 24.736C8.53994 24.8805 8.05244 24.5916 7.92605 24.1222C7.7816 23.6527 8.07049 23.1472 8.53994 23.0208L12.7108 21.8291L13.9024 25.9999C14.0469 26.4694 13.758 26.9749 13.2885 27.1013C13.1983 27.1194 13.126 27.1374 13.0358 27.1374H13.0538Z" fill="#7885FF"/>
</g>
<defs>
<clipPath id="clip0_1777_6154">
<rect width="65" height="65" fill="white"/>
</clipPath>
</defs>
</svg>
