<svg width="65" height="65" viewBox="0 0 65 65" fill="none" xmlns="http://www.w3.org/2000/svg">
<g clip-path="url(#clip0_1777_6155)">
<path d="M57.2898 55.593H48.7856C48.2981 55.593 47.8828 55.1957 47.8828 54.6902C47.8828 54.1846 48.28 53.7874 48.7856 53.7874H57.2898C58.3189 53.7874 59.2217 53.2638 59.7453 52.3791C60.2509 51.4944 60.2509 50.4471 59.7453 49.5624L58.6259 47.6124C58.3731 47.1791 58.5175 46.6374 58.9509 46.3846C59.3661 46.1319 59.9259 46.2763 60.1787 46.7096L61.2981 48.6416C62.1286 50.086 62.1286 51.8013 61.2981 53.2638C60.4675 54.7082 58.9689 55.5749 57.2898 55.5749V55.593Z" fill="#7885FF"/>
<path d="M51.3854 58.2293C51.1506 58.2293 50.934 58.139 50.7534 57.9584L47.4854 54.6904L50.7534 51.4223C51.0965 51.0793 51.6742 51.0793 52.0173 51.4223C52.3604 51.7654 52.3604 52.3432 52.0173 52.6862L50.0131 54.6904L52.0173 56.6765C52.3604 57.0196 52.3604 57.5973 52.0173 57.9404C51.8367 58.1209 51.6201 58.2112 51.3854 58.2112V58.2293Z" fill="#7885FF"/>
<path d="M57.8317 45.4099C57.5247 45.4099 57.2178 45.2474 57.0553 44.9585L52.7942 37.5918C52.2886 36.7071 51.3678 36.1835 50.3386 36.1835C49.3094 36.1835 48.4067 36.7071 47.9011 37.5918L46.7817 39.5238C46.5289 39.9571 45.9872 40.1015 45.5539 39.8488C45.1205 39.596 44.9761 39.0543 45.2289 38.621L46.3483 36.689C47.1789 35.2446 48.6775 34.3779 50.3386 34.3779C51.9997 34.3779 53.4983 35.2446 54.3469 36.689L58.608 44.0557C58.8608 44.489 58.7164 45.0307 58.283 45.2835C58.1386 45.3557 57.9942 45.4099 57.8317 45.4099Z" fill="#7885FF"/>
<path d="M58.4818 45.6265L54.022 44.4348C53.5526 44.3084 53.2637 43.8209 53.3901 43.3334C53.5165 42.864 54.004 42.5751 54.4915 42.7015L57.2179 43.4237L57.9401 40.6973C58.0665 40.2279 58.5359 39.939 59.0415 40.0654C59.5109 40.1918 59.7998 40.6793 59.6734 41.1668L58.4818 45.6265Z" fill="#7885FF"/>
<path d="M43.6219 55.6833C41.9969 55.6833 40.5163 54.8527 39.6858 53.4444C38.8191 52.018 38.8011 50.2847 39.6136 48.8222L43.7302 41.3833C43.965 40.95 44.5247 40.7875 44.94 41.0402C45.3733 41.275 45.5358 41.8166 45.283 42.25L41.1663 49.6889C40.6788 50.5916 40.6969 51.6389 41.2205 52.5236C41.7441 53.3902 42.6469 53.8597 43.6941 53.8777L45.933 53.8416C46.4205 53.8416 46.8177 54.2389 46.8358 54.7264C46.8358 55.2139 46.4566 55.6291 45.9511 55.6291L43.7122 55.6652H43.6219V55.6833Z" fill="#7885FF"/>
<path d="M45.5361 46.2764C45.1388 46.2764 44.7958 46.0237 44.6694 45.6264L43.893 42.9181L41.1847 43.6945C40.6972 43.8389 40.2097 43.5501 40.0833 43.0806C39.9388 42.6112 40.2277 42.1056 40.6972 41.9792L45.1388 40.7153L46.4027 45.157C46.5472 45.6264 46.2583 46.132 45.7888 46.2584C45.6986 46.2764 45.6263 46.2945 45.5361 46.2945V46.2764Z" fill="#7885FF"/>
<path d="M38.2956 55.6291H5.21777V30.9291C5.21777 28.1485 7.47472 25.8916 10.2553 25.8916H46.2039C48.9844 25.8916 51.2414 28.1485 51.2414 30.9291V35.2624H49.4539V30.9291C49.4539 29.1416 47.9914 27.6791 46.2039 27.6791H10.2733C8.48583 27.6791 7.02333 29.1416 7.02333 30.9291V53.8235H38.3136V55.611L38.2956 55.6291Z" fill="#7885FF"/>
<path d="M17.0441 27.6612H9.09961L10.2191 7.38477H15.9427L17.0621 27.6612H17.0441ZM10.9954 25.8737H15.1482L14.2274 9.17227H11.8982L10.9774 25.8737H10.9954Z" fill="#7885FF"/>
<path d="M32.6266 55.6294H10.0391V35.4433C10.0391 34.4863 10.8155 33.71 11.7724 33.71H30.8932C31.8502 33.71 32.6266 34.4863 32.6266 35.4433V55.6294ZM11.8266 53.8419H30.8391V35.4433L11.7724 35.4975L11.8266 53.8419Z" fill="#7885FF"/>
<path d="M15.4918 29.8999H10.0391V31.6874H15.4918V29.8999Z" fill="#7885FF"/>
<path d="M23.2916 29.8999H17.8389V31.6874H23.2916V29.8999Z" fill="#7885FF"/>
<path d="M31.0739 29.8999H25.6211V31.6874H31.0739V29.8999Z" fill="#7885FF"/>
<path d="M38.8551 29.8999H33.4023V31.6874H38.8551V29.8999Z" fill="#7885FF"/>
<path d="M46.6373 29.8999H41.1846V31.6874H46.6373V29.8999Z" fill="#7885FF"/>
<path d="M15.3113 11.4292H10.8516V13.2167H15.3113V11.4292Z" fill="#7885FF"/>
<path d="M26.3429 27.6612H18.3984L19.5179 7.38477H25.2415L26.3609 27.6612H26.3429ZM20.2762 25.8737H24.429L23.5082 9.17227H21.179L20.2582 25.8737H20.2762Z" fill="#7885FF"/>
<path d="M24.6101 11.4292H20.1504V13.2167H24.6101V11.4292Z" fill="#7885FF"/>
<path d="M44.4712 27.6793H29.4128L29.6837 24.1765L28.9795 15.6001H44.8864L44.2003 24.2487L44.4531 27.6793H44.4712ZM31.3448 25.8918H42.5392L42.4128 24.2487V24.1765L42.9726 17.3876H30.9295L31.4712 24.1765L31.3448 25.8918Z" fill="#7885FF"/>
</g>
<defs>
<clipPath id="clip0_1777_6155">
<rect width="65" height="65" fill="white"/>
</clipPath>
</defs>
</svg>
