<svg width="65" height="65" viewBox="0 0 65 65" fill="none" xmlns="http://www.w3.org/2000/svg">
<g clip-path="url(#clip0_1777_6158)">
<path d="M13.3066 26.1081H28.6358V21.5581H13.3066V26.1081ZM15.0941 23.3456H26.8483V24.3206H15.0941V23.3456Z" fill="#7885FF"/>
<path d="M13.3066 38.5304H28.6358V27.4263H13.3066V38.5304ZM15.0941 29.2138H26.8483V36.7429H15.0941V29.2138Z" fill="#7885FF"/>
<path d="M55.9358 23.761C55.9358 22.9846 55.3039 22.3526 54.5275 22.3526H52.3428L50.483 20.0776H39.8664L38.0247 22.3526H35.84C35.0636 22.3526 34.4316 22.9846 34.4316 23.761V27.0832H55.9358V23.761ZM54.1483 25.2957H36.2372V24.1582H38.2233C38.7108 24.1582 39.1622 23.9054 39.3608 23.5804L40.7511 21.8832H49.6705L51.0247 23.5443C51.2955 23.9235 51.7108 24.1582 52.1803 24.1582H54.1664V25.2957H54.1483Z" fill="#7885FF"/>
<path d="M49.3095 22.6777H41.0762V24.4652H49.3095V22.6777Z" fill="#7885FF"/>
<path d="M54.3835 48.8221H53.5349L54.7988 29.0693C54.8349 28.5818 54.4557 28.1485 53.9682 28.1124C53.9502 28.1124 53.9321 28.1124 53.9141 28.1124C53.4446 28.1124 53.0474 28.4735 53.0113 28.9429L51.4043 54.004H39.1266L37.5196 28.9429C37.4835 28.4554 37.0502 28.0582 36.5627 28.1124C36.0752 28.1485 35.696 28.5638 35.7321 29.0693L36.996 48.8402C36.996 48.8402 36.9238 48.8221 36.8696 48.8221H35.9849C35.1182 48.8221 34.4141 49.5263 34.4141 50.3929V54.7263C34.4141 55.5929 35.1182 56.2971 35.9849 56.2971H36.8696C37.321 56.2971 37.7002 56.1165 37.9891 55.8096H52.3613C52.6502 56.0985 53.0474 56.2971 53.4807 56.2971H54.3655C55.2321 56.2971 55.9363 55.5929 55.9363 54.7263V50.3929C55.9363 49.5263 55.2321 48.8221 54.3655 48.8221H54.3835Z" fill="#7885FF"/>
<path d="M50.682 40.589C51.1515 39.7584 51.1515 38.7654 50.682 37.9529L50.1584 37.0501C50.014 36.7973 49.7612 36.6529 49.4904 36.6168L49.9779 34.7931C50.1043 34.3237 49.8154 33.8181 49.3459 33.6918C48.9848 33.6015 48.6237 33.7279 48.407 34.0168L47.432 32.3376C46.9445 31.507 46.0959 31.0195 45.139 31.0195C44.182 31.0195 43.3334 31.5251 42.8459 32.3376L42.3223 33.2404C42.1779 33.5112 42.1779 33.8001 42.3043 34.0529L40.4626 34.5765C39.9931 34.7209 39.7043 35.2084 39.8487 35.6779C39.957 36.039 40.2459 36.2918 40.607 36.3279L39.6681 38.0251C39.1987 38.8556 39.2168 39.8487 39.7223 40.6793C40.2098 41.4918 41.0404 41.9612 41.9793 41.9612H43.0806C43.3515 41.9431 43.5681 41.8168 43.7306 41.6362L44.9945 42.9001C45.1751 43.0806 45.3918 43.1709 45.6265 43.1709C45.8612 43.1709 46.0779 43.0806 46.2584 42.9001C46.5293 42.6293 46.5834 42.2501 46.457 41.9251H48.389C49.3459 41.9251 50.1945 41.4376 50.682 40.607V40.589ZM43.0445 40.1556H41.9973C41.4918 40.2098 41.3293 39.8848 41.257 39.7584C41.1848 39.632 41.0223 39.289 41.257 38.9098L42.214 37.1584C42.3765 37.3751 42.6112 37.5376 42.882 37.5376C42.9543 37.5376 43.0445 37.5376 43.1348 37.5015C43.6043 37.357 43.8931 36.8695 43.7487 36.4001L43.2251 34.5584C43.4959 34.5223 43.7487 34.3779 43.8931 34.1431L44.4168 33.2223C44.6334 32.8431 45.0126 32.789 45.157 32.789C45.3015 32.789 45.6806 32.8251 45.8973 33.2223L46.8723 34.9015C46.5293 34.9556 46.2223 35.1904 46.132 35.5515C46.0056 36.0209 46.2945 36.5265 46.764 36.6529L48.5876 37.1404C48.4793 37.3931 48.4793 37.682 48.6237 37.9348L49.1473 38.8556C49.364 39.2348 49.2195 39.5779 49.1473 39.7043C49.0751 39.8306 48.8584 40.1376 48.407 40.1376H46.457C46.5834 39.8126 46.5293 39.4334 46.2584 39.1626C45.9154 38.8195 45.3376 38.8195 44.9945 39.1626L43.7306 40.4265C43.5681 40.2459 43.3515 40.1376 43.0445 40.1737V40.1556Z" fill="#7885FF"/>
<path d="M21.8657 9.04586H25.9463V4.91113H21.8657H20.0602V10.7431L9.66016 17.9653V55.6472H32.2477V17.9472L21.8477 10.725V9.04586H21.8657ZM15.0949 53.8236V41.6361H20.0782V53.8236H15.0949ZM21.8657 53.8236V41.6361H26.849V53.8236H21.8657ZM30.4782 53.8236H28.6365V39.8486H13.3074V53.8236H11.4657V18.8861L20.9629 12.2778L30.4602 18.8861V53.8236H30.4782Z" fill="#7885FF"/>
</g>
<defs>
<clipPath id="clip0_1777_6158">
<rect width="65" height="65" fill="white"/>
</clipPath>
</defs>
</svg>
