<svg width="65" height="65" viewBox="0 0 65 65" fill="none" xmlns="http://www.w3.org/2000/svg">
<g clip-path="url(#clip0_1777_6363)">
<path d="M39.127 28.3116H31.2368C30.7493 28.3116 30.334 27.9143 30.334 27.4088C30.334 26.9032 30.7312 26.506 31.2368 26.506H39.127C40.0479 26.506 40.8784 26.0366 41.3479 25.2241C41.7993 24.4296 41.7993 23.4727 41.3479 22.6782L40.3007 20.8727C40.0479 20.4393 40.1923 19.8977 40.6257 19.6449C41.0409 19.3921 41.6007 19.5366 41.8534 19.9699L42.8826 21.7754C43.677 23.1296 43.677 24.7546 42.8826 26.1088C42.1062 27.4629 40.6979 28.2935 39.109 28.2935L39.127 28.3116Z" fill="#7C9BFF"/>
<path d="M33.674 30.749C33.4393 30.749 33.2227 30.6588 33.0421 30.4782L29.9727 27.4088L33.0421 24.3393C33.3852 23.9963 33.9629 23.9963 34.306 24.3393C34.649 24.6824 34.649 25.2602 34.306 25.6032L32.5004 27.4088L34.306 29.2143C34.649 29.5574 34.649 30.1352 34.306 30.4782C34.1254 30.6588 33.9088 30.749 33.674 30.749Z" fill="#7C9BFF"/>
<path d="M39.6501 18.8683C39.3431 18.8683 39.0362 18.7058 38.8737 18.4169L34.9376 11.5919C34.4681 10.7975 33.6556 10.31 32.7348 10.31C31.8139 10.31 30.9834 10.7794 30.532 11.5919L29.4848 13.3975C29.232 13.8308 28.6903 13.9752 28.257 13.7225C27.8237 13.4697 27.6792 12.928 27.932 12.4947L28.9792 10.6891C29.7556 9.33496 31.1639 8.52246 32.7348 8.52246C34.3056 8.52246 35.7139 9.33496 36.4903 10.6891L40.4264 17.5141C40.6792 17.9475 40.5348 18.4891 40.1014 18.7419C39.957 18.8141 39.8126 18.8683 39.6501 18.8683Z" fill="#7C9BFF"/>
<path d="M40.2822 19.0852L36.0933 17.9657C35.6239 17.8393 35.335 17.3518 35.4614 16.8643C35.5878 16.3949 36.0572 16.106 36.5628 16.2324L39.0183 16.9004L39.6683 14.4449C39.7947 13.9754 40.2822 13.6865 40.7697 13.8129C41.2392 13.9393 41.528 14.4268 41.4017 14.9143L40.2822 19.1032V19.0852Z" fill="#7C9BFF"/>
<path d="M26.4698 28.4016C24.935 28.4016 23.5628 27.6253 22.7684 26.3072C21.9559 24.953 21.9198 23.328 22.6962 21.9558L26.5239 15.0586C26.7587 14.6253 27.3184 14.4628 27.7337 14.7155C28.167 14.9503 28.3295 15.4919 28.0767 15.9253L24.2489 22.8225C23.7975 23.635 23.8156 24.5919 24.3031 25.3864C24.7725 26.1808 25.6392 26.6322 26.542 26.6141L28.6184 26.578C29.1059 26.578 29.5031 26.9753 29.5212 27.4628C29.5212 27.9503 29.142 28.3655 28.6364 28.3655L26.56 28.4016H26.4698Z" fill="#7C9BFF"/>
<path d="M28.2389 19.6809C27.8416 19.6809 27.4986 19.4281 27.3722 19.0309L26.668 16.5753L24.2125 17.2795C23.743 17.4239 23.2375 17.1351 23.1111 16.6656C22.9847 16.1962 23.2555 15.6906 23.725 15.5642L27.8958 14.3726L29.0875 18.5434C29.2319 19.0128 28.943 19.5184 28.4736 19.6448C28.3833 19.6628 28.3111 19.6809 28.2208 19.6809H28.2389Z" fill="#7C9BFF"/>
<path d="M16.5926 56.0084C13.2704 56.0084 10.5801 53.3181 10.5801 49.9959C10.5801 46.6737 13.2704 43.9834 16.5926 43.9834C19.9148 43.9834 22.6051 46.6737 22.6051 49.9959C22.6051 53.3181 19.9148 56.0084 16.5926 56.0084ZM16.5926 45.7709C14.2634 45.7709 12.3676 47.6667 12.3676 49.9959C12.3676 52.3251 14.2634 54.2209 16.5926 54.2209C18.9217 54.2209 20.8176 52.3251 20.8176 49.9959C20.8176 47.6667 18.9217 45.7709 16.5926 45.7709Z" fill="#7C9BFF"/>
<path d="M37.2852 55.7197H27.6254C27.1379 55.7197 26.7227 55.3225 26.7227 54.8169V45.1572C26.7227 44.6697 27.1199 44.2544 27.6254 44.2544H37.2852C37.7727 44.2544 38.1879 44.6516 38.1879 45.1572V54.8169C38.1879 55.3044 37.7907 55.7197 37.2852 55.7197ZM28.5282 53.9322H36.3824V46.078H28.5282V53.9322Z" fill="#7C9BFF"/>
<path d="M54.1491 55.9544H42.4852C42.1602 55.9544 41.8713 55.7919 41.7088 55.503C41.5463 55.2141 41.5463 54.8891 41.7088 54.6002L47.5407 44.4891C47.8657 43.9294 48.7685 43.9294 49.0935 44.4891L54.9255 54.6002C55.088 54.8711 55.088 55.2141 54.9255 55.503C54.763 55.7919 54.4741 55.9544 54.1491 55.9544ZM44.0199 54.1489H52.5782L48.2991 46.728L44.0199 54.1489Z" fill="#7C9BFF"/>
<path d="M50.1949 40.9317H48.4074V37.9525H17.2074V40.9317H15.4199V36.165H50.1949V40.9317Z" fill="#7C9BFF"/>
<path d="M33.6918 33.2041H31.9043V40.9499H33.6918V33.2041Z" fill="#7C9BFF"/>
</g>
<defs>
<clipPath id="clip0_1777_6363">
<rect width="65" height="65" fill="white"/>
</clipPath>
</defs>
</svg>
