<svg width="65" height="65" viewBox="0 0 65 65" fill="none" xmlns="http://www.w3.org/2000/svg">
<g clip-path="url(#clip0_1777_6261)">
<path d="M39.1261 24.6822H31.2358C30.7483 24.6822 30.333 24.2849 30.333 23.7794C30.333 23.2738 30.7302 22.8766 31.2358 22.8766H39.1261C40.0469 22.8766 40.8775 22.4072 41.3469 21.5947C41.7983 20.8002 41.7983 19.8433 41.3469 19.0488L40.2997 17.2433C40.0469 16.8099 40.1913 16.2683 40.6247 16.0155C41.04 15.7627 41.5997 15.9072 41.8525 16.3405L42.8816 18.1461C43.6761 19.5002 43.6761 21.1252 42.8816 22.4794C42.1052 23.8336 40.6969 24.6641 39.108 24.6641L39.1261 24.6822Z" fill="#4451CB"/>
<path d="M33.6731 27.1197C33.4383 27.1197 33.2217 27.0294 33.0411 26.8488L29.9717 23.7794L33.0411 20.7099C33.3842 20.3669 33.962 20.3669 34.305 20.7099C34.6481 21.053 34.6481 21.6308 34.305 21.9738L32.4995 23.7794L34.305 25.5849C34.6481 25.928 34.6481 26.5058 34.305 26.8488C34.1245 27.0294 33.9078 27.1197 33.6731 27.1197Z" fill="#4451CB"/>
<path d="M39.6501 15.2389C39.3431 15.2389 39.0362 15.0764 38.8737 14.7875L34.9376 7.96251C34.4681 7.16807 33.6556 6.68057 32.7348 6.68057C31.8139 6.68057 30.9834 7.16807 30.532 7.96251L29.4848 9.76807C29.232 10.2014 28.6903 10.3278 28.257 10.0931C27.8237 9.84029 27.6792 9.29862 27.932 8.86529L28.9792 7.05973C29.7556 5.70557 31.1639 4.89307 32.7348 4.89307C34.3056 4.89307 35.7139 5.70557 36.4903 7.05973L40.4264 13.8847C40.6792 14.3181 40.5348 14.8597 40.1014 15.1125C39.957 15.1847 39.8126 15.2389 39.6501 15.2389Z" fill="#4451CB"/>
<path d="M40.2822 15.4558L36.0933 14.3363C35.6239 14.2099 35.335 13.7224 35.4614 13.2349C35.5878 12.7655 36.0753 12.4766 36.5628 12.603L39.0183 13.271L39.6683 10.8155C39.7947 10.346 40.2822 10.0572 40.7697 10.1835C41.2392 10.3099 41.528 10.7974 41.4017 11.2849L40.2822 15.4738V15.4558Z" fill="#4451CB"/>
<path d="M26.4691 24.7723C24.9344 24.7723 23.5441 23.9959 22.7497 22.6778C21.9372 21.3236 21.9191 19.6986 22.6775 18.3264L26.5052 11.4292C26.74 10.9959 27.2997 10.8334 27.715 11.0861C28.1483 11.3209 28.3108 11.8625 28.058 12.2959L24.2302 19.1931C23.7788 20.0056 23.7969 20.9625 24.2844 21.757C24.7538 22.5514 25.6205 22.9667 26.5233 22.9848L28.5997 22.9486C29.0511 22.8764 29.5025 23.3278 29.5025 23.8334C29.5025 24.3209 29.1233 24.7361 28.6177 24.7361L26.5413 24.7723H26.4511H26.4691Z" fill="#4451CB"/>
<path d="M28.2389 16.0515C27.8416 16.0515 27.4986 15.7987 27.3722 15.4015L26.668 12.9459L24.2125 13.6501C23.725 13.7946 23.2375 13.5057 23.1111 13.0362C22.9847 12.5668 23.2555 12.0612 23.725 11.9348L27.8958 10.7432L29.0875 14.914C29.2319 15.3834 28.943 15.889 28.4736 16.0154C28.3833 16.0334 28.3111 16.0515 28.2208 16.0515H28.2389Z" fill="#4451CB"/>
<path d="M30.243 43.5678C29.7194 43.5678 29.1957 43.3873 28.7624 43.0623C28.0582 42.5026 27.7152 41.6178 27.8777 40.7151L28.8166 35.6415C28.9791 34.7567 29.4124 33.9623 30.0624 33.3303L33.3666 30.2067C34.6485 28.9789 36.4902 28.5998 38.1694 29.1956L47.4319 32.4817L57.7777 26.4512L58.6805 28.004L47.6124 34.4498L37.5735 30.8748C36.5263 30.4956 35.3888 30.7484 34.6124 31.5067L31.3082 34.6303C30.9291 34.9915 30.6763 35.4428 30.586 35.9484L29.6471 41.022C29.5749 41.3651 29.7916 41.5456 29.8638 41.6178C29.9541 41.6901 30.1888 41.8345 30.4957 41.6901C32.0485 40.9859 33.2221 39.7401 33.818 38.1692L34.2513 37.0498L37.6999 34.6665L38.711 36.147L35.7138 38.2053L35.4971 38.8012C34.7388 40.8053 33.2402 42.3942 31.2902 43.297C30.9471 43.4595 30.6041 43.5317 30.243 43.5317V43.5678Z" fill="#4451CB"/>
<path d="M61.2304 41.6414L47.8408 46.1787L48.4145 47.8716L61.8041 43.3343L61.2304 41.6414Z" fill="#4451CB"/>
<path d="M21.0519 35.1359L5.86719 28.04L6.62552 26.415L21.07 33.1678L28.3283 29.972C29.3214 29.5387 30.4408 29.4664 31.488 29.7553L33.7811 30.4234L33.2755 32.1386L30.9825 31.4706C30.3325 31.29 29.6464 31.3262 29.0325 31.597L21.0339 35.1178L21.0519 35.1359Z" fill="#4451CB"/>
<path d="M4.35515 42.2087L3.81348 43.9121L15.9785 47.7804L16.5202 46.077L4.35515 42.2087Z" fill="#4451CB"/>
<path d="M48.1537 53.1916C47.8106 53.1916 47.4856 53.1374 47.1426 53.0471L37.1759 49.9958L37.6995 48.2805L47.6662 51.3319C48.4606 51.5846 49.3273 51.1694 49.6342 50.393C49.9592 49.5985 49.5981 48.6777 48.8217 48.3166L38.3495 43.4416C37.1939 42.918 36.4176 41.8346 36.2551 40.5888L35.7314 36.6527L37.5009 36.418L38.0245 40.3541C38.1148 41.0041 38.512 41.5457 39.0898 41.8166L49.562 46.6916C51.2231 47.468 51.9634 49.3999 51.2773 51.0791C50.7356 52.3971 49.4717 53.1916 48.1356 53.1916H48.1537Z" fill="#4451CB"/>
<path d="M44.4346 56.4597C44.0916 56.4597 43.7666 56.4055 43.4235 56.3152L34.793 53.6611L35.3166 51.9458L43.9471 54.6C44.7596 54.8527 45.5902 54.4375 45.9152 53.6611L47.5763 54.3472C47.0346 55.6652 45.7888 56.4597 44.4346 56.4597Z" fill="#4451CB"/>
<path d="M47.5761 54.3289L45.915 53.6428C46.0956 53.2095 46.0775 52.7581 45.8789 52.3428L47.5039 51.5845C47.9011 52.4511 47.9372 53.4442 47.5761 54.3289Z" fill="#4451CB"/>
<path d="M39.1084 58.7166C38.7834 58.7166 38.4404 58.6625 38.0973 58.5722L32.6445 56.893L33.1681 55.1777L38.6209 56.8569C39.4154 57.1097 40.282 56.7125 40.589 55.918L42.2501 56.6041C41.7084 57.9222 40.4445 58.7166 39.1084 58.7166Z" fill="#4451CB"/>
<path d="M42.25 56.6038L40.5889 55.9177C40.7153 55.6107 40.7333 55.3038 40.6791 54.9788L42.4305 54.6357C42.5569 55.2857 42.5028 55.9719 42.2319 56.5857L42.25 56.6038Z" fill="#4451CB"/>
<path d="M33.4386 60.3777C33.0956 60.3777 32.7706 60.3236 32.4275 60.2333L29.5928 59.3666L30.1164 57.6513L32.9511 58.518C33.7636 58.7708 34.6122 58.3736 34.9192 57.5972L36.5803 58.2833C36.0386 59.6013 34.7928 60.3958 33.4386 60.3958V60.3777Z" fill="#4451CB"/>
<path d="M36.5801 58.2648L34.9189 57.5787C35.0092 57.3801 35.0453 57.1634 35.0453 56.9468H36.8328C36.8328 57.3982 36.7426 57.8315 36.5801 58.2468V58.2648Z" fill="#4451CB"/>
<path d="M20.6551 55.5929C20.0593 55.5929 19.4815 55.4124 18.976 55.0332L18.4524 54.654C17.2065 53.7151 16.9538 51.9457 17.8746 50.7179L19.0843 49.0929C19.5357 48.4971 20.1857 48.0999 20.944 47.9915C21.7024 47.8832 22.4246 48.0638 23.0385 48.5151L23.5621 48.9124C24.1579 49.3637 24.5551 50.0318 24.6635 50.7721C24.7718 51.5124 24.5732 52.2526 24.1399 52.8665L22.9301 54.4915C22.3704 55.2318 21.5218 55.629 20.6732 55.629L20.6551 55.5929ZM21.3593 49.7429C21.3593 49.7429 21.251 49.7429 21.2149 49.7429C20.944 49.779 20.7093 49.9235 20.5468 50.1401L19.3371 51.7651C18.994 52.2165 19.0843 52.8665 19.5538 53.2096L20.0774 53.5887C20.5288 53.9318 21.1788 53.8415 21.5218 53.3721L22.7315 51.7471C22.894 51.5304 22.9663 51.2596 22.9301 50.9887C22.894 50.7179 22.7496 50.4832 22.5329 50.3207L22.0093 49.9235C21.8288 49.7971 21.6121 49.7249 21.3954 49.7249L21.3593 49.7429Z" fill="#4451CB"/>
<path d="M24.2665 58.2829C23.6706 58.2829 23.0748 58.0843 22.5873 57.7232L22.0637 57.326C20.8179 56.4051 20.5651 54.6357 21.4859 53.3899L22.6956 51.7649C23.6345 50.519 25.404 50.2663 26.6318 51.1871L27.1554 51.5663C27.7512 52.0176 28.1484 52.6676 28.2568 53.426C28.3651 54.1663 28.1845 54.9065 27.7331 55.5204L26.5234 57.1454C26.072 57.7413 25.422 58.1385 24.6637 58.2468C24.5193 58.2649 24.3929 58.2829 24.2484 58.2829H24.2665ZM24.9526 52.4329C24.6456 52.4329 24.3206 52.5774 24.122 52.8482L22.9123 54.4732C22.7498 54.6899 22.6776 54.9607 22.7137 55.2315C22.7498 55.5024 22.8943 55.7371 23.1109 55.8996L23.6345 56.2968C23.8512 56.4593 24.122 56.5315 24.3929 56.4954C24.6637 56.4593 24.8984 56.3149 25.0609 56.0982L26.2706 54.4732C26.6137 54.0218 26.5234 53.3718 26.054 53.0288L25.5304 52.6496C25.3498 52.5051 25.1331 52.451 24.9165 52.451L24.9526 52.4329Z" fill="#4451CB"/>
<path d="M28.0575 60.7207C27.4617 60.7207 26.8658 60.522 26.3783 60.1609L25.8547 59.7818C24.6089 58.8429 24.3561 57.0734 25.2769 55.8276L26.1075 54.7262C26.5589 54.1304 27.2089 53.7332 27.9672 53.6248C28.7075 53.5165 29.4478 53.697 30.0617 54.1484L30.5853 54.5457C31.8311 55.4665 32.0839 57.2359 31.163 58.4818L30.3325 59.5832C29.8811 60.179 29.2311 60.5762 28.4728 60.6845C28.3283 60.7026 28.2019 60.7207 28.0575 60.7207ZM28.3644 55.3762C28.3644 55.3762 28.2561 55.3762 28.22 55.3762C27.9492 55.4123 27.7144 55.5568 27.5519 55.7734L26.7214 56.8748C26.3783 57.3262 26.4686 57.9762 26.938 58.3193L27.4617 58.6984C27.6783 58.8609 27.9492 58.9332 28.22 58.897C28.4908 58.8609 28.7255 58.7165 28.888 58.4998L29.7186 57.3984C29.8811 57.1818 29.9533 56.9109 29.9172 56.6401C29.8811 56.3693 29.7367 56.1345 29.52 55.972L28.9964 55.5748C28.8158 55.4484 28.5992 55.3762 28.3825 55.3762H28.3644Z" fill="#4451CB"/>
<path d="M17.0623 52.9024C16.4665 52.9024 15.8887 52.7219 15.3831 52.3427L14.8595 51.9635C14.2637 51.5122 13.8665 50.8622 13.7581 50.1038C13.6498 49.3635 13.8304 48.6233 14.2817 48.0094L15.4915 46.3844C15.9429 45.7885 16.6109 45.3913 17.3512 45.283C18.1095 45.1747 18.8317 45.3733 19.4456 45.8066L19.9692 46.1858C21.2151 47.1247 21.4679 48.8941 20.547 50.1399L19.3373 51.7649C18.7776 52.5052 17.929 52.9024 17.0804 52.9024H17.0623ZM17.7484 47.0524C17.7484 47.0524 17.6581 47.0524 17.604 47.0524C17.3331 47.0885 17.0984 47.233 16.9179 47.4497L15.7081 49.0747C15.5456 49.2913 15.4734 49.5622 15.5095 49.833C15.5456 50.1038 15.6901 50.3385 15.9067 50.501L16.4304 50.8802C16.8817 51.2233 17.5317 51.133 17.8748 50.6635L19.0845 49.0385C19.4276 48.5872 19.3373 47.9372 18.8679 47.5941L18.3442 47.2149C18.1637 47.0705 17.947 47.0163 17.7304 47.0163L17.7484 47.0524Z" fill="#4451CB"/>
<path d="M11.3949 29.7062L5.96289 43.5957L7.62761 44.2468L13.0596 30.3573L11.3949 29.7062Z" fill="#4451CB"/>
<path d="M54.6403 29.4461L52.9756 30.0972L58.2695 43.6335L59.9342 42.9825L54.6403 29.4461Z" fill="#4451CB"/>
</g>
<defs>
<clipPath id="clip0_1777_6261">
<rect width="65" height="65" fill="white"/>
</clipPath>
</defs>
</svg>
